<svg xmlns='http://www.w3.org/2000/svg' viewBox='0 0 1024 1024' width='1024' height='1024'>
  <defs>
    <linearGradient id='bgGrad' x1='0' y1='0' x2='0' y2='1'>
      <stop offset='0%' stop-color='#e63946'/>
      <stop offset='100%' stop-color='#0066ff'/>
    </linearGradient>
  </defs>

  <!-- Squircle backplate, macOS Big Sur+ proportions -->
  <rect x='0' y='0' width='1024' height='1024' rx='200' ry='200' fill='url(#bgGrad)'/>

  <!-- ISSA speed-skydiver figure (vectorized via potrace; cleaned of artifacts).
       Source viewBox 350 x 1620; outer scale 0.55 -> 192.5 x 891.
       Positioned x=415..608, y=65..956 in icon coords. -->
  <g transform='translate(410, 25) scale(0.58)'>
    <g transform='translate(0,1660) scale(0.1,-0.1)' fill='#ffffff' stroke='none'>
      <path d="M1726 16218 c-3 -128 -11 -710 -16 -1293 -17 -1819 -24 -1882 -415
-4125 -181 -1036 -229 -1316 -294 -1725 -213 -1334 -311 -2247 -373 -3470 -18
-339 -18 -1847 0 -2205 46 -959 124 -1583 268 -2138 156 -604 434 -1046 749
-1193 95 -44 161 -59 257 -59 178 0 365 87 520 242 452 452 734 1562 828 3258
25 453 32 675 37 1280 15 1736 -110 3136 -518 5780 -47 309 -73 472 -188 1185
-123 760 -168 1158 -191 1685 -12 279 -12 1025 0 1465 5 182 12 603 16 938 l7
607 -340 0 -341 0 -6 -232z m527 -2583 c15 -578 61 -972 251 -2140 263 -1611
445 -2948 536 -3925 l29 -315 -30 -365 -30 -365 -86 -200 c-222 -518 -364
-931 -489 -1423 -105 -415 -187 -851 -345 -1837 -50 -312 -51 -324 -46 -485 3
-143 7 -175 30 -244 14 -44 42 -102 61 -130 59 -87 165 -155 241 -155 84 -1
215 106 279 229 44 84 80 231 101 415 19 167 34 605 35 995 0 347 10 483 55
778 49 317 124 754 130 760 2 3 7 -1 9 -9 7 -21 113 -775 128 -909 27 -245 11
-748 -42 -1315 -57 -607 -281 -1060 -606 -1223 l-41 -21 -159 127 c-87 69
-220 174 -295 232 -115 90 -135 109 -128 125 14 37 9 104 -21 255 -49 245 -50
491 -4 940 47 464 156 1114 257 1525 40 164 41 175 41 335 0 188 -8 230 -95
472 -91 254 -115 354 -125 521 -11 177 13 301 131 666 98 306 103 336 110 731
16 858 47 1316 112 1630 24 117 27 158 27 300 0 189 -11 259 -98 632 -120 513
-123 559 -76 1289 32 488 33 517 18 589 -22 108 -67 208 -170 382 -118 198
-141 253 -142 343 -1 80 9 103 87 205 96 127 200 376 293 703 31 110 50 162
54 150 4 -10 10 -130 13 -268z m-347 -8386 c45 -21 78 -64 94 -120 7 -24 4
-56 -15 -128 -62 -245 -156 -755 -209 -1131 -64 -447 -79 -634 -80 -955 l-1
-290 34 -168 c19 -92 31 -170 28 -173 -12 -12 -139 68 -203 128 -183 172 -315
487 -379 905 -102 669 43 1510 307 1789 132 139 309 199 424 143z m-286 -3015
c72 -32 200 -125 490 -355 107 -85 254 -200 325 -256 150 -116 247 -213 275
-275 23 -51 26 -125 5 -174 l-15 -36 -39 48 c-184 230 -619 544 -827 599 -84
22 -127 13 -179 -39 -51 -51 -74 -114 -82 -216 -7 -97 13 -213 72 -408 25 -83
45 -154 45 -157 0 -12 -72 -3 -170 20 -66 16 -144 45 -209 76 -87 43 -116 63
-186 132 -139 139 -193 283 -182 486 7 121 27 195 83 302 68 129 176 228 299
272 77 27 211 19 295 -19z m314 -592 c227 -113 602 -416 679 -550 l18 -31 -53
-36 c-114 -77 -317 -113 -558 -100 -74 4 -155 10 -179 14 l-44 6 -48 160 c-63
205 -80 290 -80 391 -1 87 16 141 54 182 32 35 88 25 211 -36z"/>
    </g>
  </g>

  <!-- Extension #1: continue the leg shaft upward to the icon's top edge.
       Shaft natural width at the figure top is 36 px (x=510..546). -->
  <rect x='510' y='0' width='36' height='72' fill='white'/>


  <!-- Speed-curve ideogram bottom-right -->
  <g transform='translate(620, 680)' stroke='white' fill='none' stroke-linecap='round' stroke-linejoin='round'>
    <line x1='0' y1='240' x2='320' y2='240' stroke-width='6' opacity='0.35'/>
    <line x1='0' y1='0' x2='0' y2='240' stroke-width='6' opacity='0.35'/>
    <path d='M 0 220 Q 80 200 140 130 Q 200 50 240 30 Q 270 50 300 180' stroke-width='18'/>
    <polygon points='0,-26 6,-8 25,-8 10,3 15,21 0,10 -15,21 -10,3 -25,-8 -6,-8' fill='#39ff14' stroke='black' stroke-width='2' stroke-linejoin='miter' transform='translate(240, 30)'/>
  </g>

  <!-- Data-grid ideogram top-left, mirroring the plot's bottom-right placement.
       Solid-white header band, 5x3 outlined data cells. -->
  <g transform='translate(84, 104)'>
    <rect x='0' y='0' width='320' height='50' fill='white' stroke='none'/>
    <g stroke='white' stroke-width='6' fill='none' stroke-linejoin='miter'>
      <rect x='0' y='50' width='320' height='190'/>
      <line x1='64'  y1='50' x2='64'  y2='240'/>
      <line x1='128' y1='50' x2='128' y2='240'/>
      <line x1='192' y1='50' x2='192' y2='240'/>
      <line x1='256' y1='50' x2='256' y2='240'/>
      <line x1='0' y1='113' x2='320' y2='113'/>
      <line x1='0' y1='176' x2='320' y2='176'/>
    </g>
  </g>
</svg>
